<?xml version="1.0" encoding="UTF-8" standalone="no"?>
<svg
   xmlns:dc="http://purl.org/dc/elements/1.1/"
   xmlns:cc="http://creativecommons.org/ns#"
   xmlns:rdf="http://www.w3.org/1999/02/22-rdf-syntax-ns#"
   xmlns:svg="http://www.w3.org/2000/svg"
   xmlns="http://www.w3.org/2000/svg"
   viewBox="0 0 562.45825 128.15783"
   height="128.15784"
   width="562.45825"
   xml:space="preserve"
   version="1.1"
   id="svg2"><metadata
     id="metadata8"><rdf:RDF><cc:Work
         rdf:about=""><dc:format>image/svg+xml</dc:format><dc:type
           rdf:resource="http://purl.org/dc/dcmitype/StillImage" /><dc:title></dc:title></cc:Work></rdf:RDF></metadata><defs
     id="defs6"><clipPath
       id="clipPath16"
       clipPathUnits="userSpaceOnUse"><path
         id="path18"
         d="m 40.18,594.905 533.302,0 0,185.863 -533.302,0 0,-185.863 z" /></clipPath></defs><g
     transform="matrix(1.25,0,0,-1.25,-102.31049,923.87435)"
     id="g10"><g
       id="g12"><g
         clip-path="url(#clipPath16)"
         id="g14"><g
           transform="translate(524.771,700.8472)"
           id="g20"><path
             id="path22"
             style="fill:#c7d759;fill-opacity:1;fill-rule:nonzero;stroke:none"
             d="m 0,0 c 9.392,-6.128 9.392,-19.894 0,-26.012 -20.506,-11.918 -41.009,-23.823 -61.515,-35.736 -7.198,-4.682 -16.813,-2.657 -21.497,4.529 -4.681,7.183 -2.663,16.809 4.527,21.495 13.033,7.573 26.071,15.146 39.118,22.717 -13.047,7.569 -26.085,15.142 -39.118,22.712 -7.19,4.691 -9.208,14.314 -4.527,21.497 4.684,7.186 14.299,9.212 21.497,4.527 C -41.009,23.815 -20.506,11.909 0,0" /></g><g
           transform="translate(336.7505,689.6982)"
           id="g24"><path
             id="path26"
             style="fill:#ed2f77;fill-opacity:1;fill-rule:nonzero;stroke:none"
             d="m 0,0 c -11.326,-15.817 -22.643,-31.638 -33.978,-47.454 -5.448,-6.625 -15.233,-7.587 -21.862,-2.137 -6.623,5.452 -7.58,15.24 -2.133,21.868 15.326,21.402 30.652,42.8 45.981,64.206 6.205,7.557 17.787,7.557 23.994,0 15.325,-21.406 30.653,-42.804 45.98,-64.206 5.445,-6.628 4.489,-16.416 -2.139,-21.868 -6.623,-5.45 -16.41,-4.488 -21.858,2.137 C 22.659,-31.638 11.331,-15.817 0,0" /></g><g
           transform="translate(230.9116,661.7681)"
           id="g28"><path
             id="path30"
             style="fill:#14bae7;fill-opacity:1;fill-rule:nonzero;stroke:none"
             d="m 0,0 c 5.329,-6.723 4.2,-16.494 -2.514,-21.826 -6.721,-5.326 -16.494,-4.211 -21.822,2.515 -6.568,8.276 -13.133,16.554 -19.697,24.823 -3.967,4.998 -7.927,9.984 -11.89,14.984 -2.937,-3.701 -5.88,-7.403 -8.813,-11.109 -4.149,-5.22 -12.081,-5.22 -16.223,0 -2.943,3.706 -5.88,7.408 -8.811,11.109 -3.968,-5 -7.932,-9.986 -11.897,-14.984 -6.56,-8.269 -13.131,-16.547 -19.691,-24.823 -5.332,-6.726 -15.108,-7.841 -21.827,-2.515 -6.72,5.332 -7.845,15.103 -2.511,21.826 14.969,18.863 29.938,37.725 44.904,56.597 4.146,5.219 12.081,5.219 16.223,0 3.902,-4.93 7.811,-9.851 11.719,-14.772 3.908,4.921 7.812,9.842 11.718,14.772 4.148,5.219 12.08,5.219 16.224,0 C -29.938,37.725 -14.971,18.863 0,0" /></g></g></g></g></svg>